<svg width="20" height="20" viewBox="0 0 20 20" fill="none" xmlns="http://www.w3.org/2000/svg">
<g clip-path="url(#clip0_38_23471)">
<path d="M9.99996 1.66667C14.6025 1.66667 18.3333 5.39751 18.3333 10C18.3333 14.6025 14.6025 18.3333 9.99996 18.3333H3.33329C2.89127 18.3333 2.46734 18.1577 2.15478 17.8452C1.84222 17.5326 1.66663 17.1087 1.66663 16.6667V10C1.66663 5.39751 5.39746 1.66667 9.99996 1.66667ZM9.99996 11.6667H7.49996C7.27895 11.6667 7.06698 11.7545 6.9107 11.9108C6.75442 12.067 6.66663 12.279 6.66663 12.5C6.66663 12.721 6.75442 12.933 6.9107 13.0893C7.06698 13.2455 7.27895 13.3333 7.49996 13.3333H9.99996C10.221 13.3333 10.4329 13.2455 10.5892 13.0893C10.7455 12.933 10.8333 12.721 10.8333 12.5C10.8333 12.279 10.7455 12.067 10.5892 11.9108C10.4329 11.7545 10.221 11.6667 9.99996 11.6667ZM12.5 8.33334H7.49996C7.28756 8.33357 7.08327 8.4149 6.92882 8.56071C6.77437 8.70652 6.68143 8.9058 6.66898 9.11783C6.65654 9.32987 6.72552 9.53865 6.86185 9.70153C6.99817 9.86441 7.19155 9.96909 7.40246 9.99417L7.49996 10H12.5C12.7124 9.99977 12.9167 9.91844 13.0711 9.77263C13.2255 9.62682 13.3185 9.42754 13.3309 9.21551C13.3434 9.00348 13.2744 8.79469 13.1381 8.63181C13.0017 8.46893 12.8084 8.36426 12.5975 8.33917L12.5 8.33334Z" fill="#0E253C"/>
</g>
<defs>
<clipPath id="clip0_38_23471">
<rect width="20" height="20" fill="white"/>
</clipPath>
</defs>
</svg>
