<svg width="6" height="10" viewBox="0 0 6 10" fill="none" xmlns="http://www.w3.org/2000/svg">
<path fill-rule="evenodd" clip-rule="evenodd" d="M5.47124 4.52867C5.59622 4.65368 5.66643 4.82322 5.66643 5C5.66643 5.17677 5.59622 5.34631 5.47124 5.47133L1.6999 9.24267C1.63841 9.30634 1.56484 9.35713 1.48351 9.39207C1.40217 9.42701 1.31469 9.4454 1.22617 9.44617C1.13765 9.44693 1.04986 9.43007 0.967934 9.39655C0.886003 9.36303 0.811568 9.31352 0.748973 9.25093C0.686378 9.18833 0.636876 9.1139 0.603355 9.03197C0.569835 8.95004 0.552967 8.86225 0.553736 8.77373C0.554505 8.68521 0.572896 8.59773 0.607836 8.5164C0.642775 8.43506 0.693563 8.3615 0.757236 8.3L4.05724 5L0.757236 1.7C0.635798 1.57426 0.568601 1.40586 0.57012 1.23106C0.571639 1.05627 0.641752 0.889058 0.765357 0.765452C0.888962 0.641847 1.05617 0.571735 1.23097 0.570216C1.40577 0.568697 1.57417 0.635893 1.6999 0.757332L5.47124 4.52867Z" fill="#0E253C"/>
</svg>
