<svg width="6" height="10" viewBox="0 0 6 10" fill="none" xmlns="http://www.w3.org/2000/svg">
<path fill-rule="evenodd" clip-rule="evenodd" d="M0.528687 5.47133C0.403706 5.34631 0.333496 5.17677 0.333496 4.99999C0.333496 4.82322 0.403706 4.65368 0.528687 4.52866L4.30002 0.757328C4.36152 0.693655 4.43508 0.642866 4.51642 0.607927C4.59775 0.572988 4.68523 0.554597 4.77375 0.553828C4.86227 0.553058 4.95006 0.569926 5.03199 0.603447C5.11392 0.636968 5.18835 0.68647 5.25095 0.749065C5.31355 0.81166 5.36305 0.886094 5.39657 0.968025C5.43009 1.04996 5.44696 1.13774 5.44619 1.22626C5.44542 1.31478 5.42703 1.40226 5.39209 1.4836C5.35715 1.56493 5.30636 1.6385 5.24269 1.69999L1.94269 4.99999L5.24269 8.29999C5.36413 8.42573 5.43132 8.59413 5.4298 8.76893C5.42828 8.94373 5.35817 9.11093 5.23457 9.23454C5.11096 9.35814 4.94375 9.42826 4.76895 9.42978C4.59416 9.4313 4.42575 9.3641 4.30002 9.24266L0.528687 5.47133Z" fill="#0E253C"/>
</svg>
