<svg width="16" height="18" viewBox="0 0 16 18" fill="none" xmlns="http://www.w3.org/2000/svg">
<path d="M15.1902 12.3324C15.1254 12.2543 15.0617 12.1762 14.9992 12.1008C14.1398 11.0613 13.6199 10.434 13.6199 7.49141C13.6199 5.96797 13.2554 4.71797 12.5371 3.78047C12.0074 3.08789 11.2914 2.5625 10.3476 2.17422C10.3355 2.16746 10.3246 2.1586 10.3156 2.14805C9.97615 1.01133 9.04724 0.25 7.99959 0.25C6.95193 0.25 6.02342 1.01133 5.68396 2.14687C5.6749 2.15704 5.66421 2.16562 5.65232 2.17227C3.44998 3.07891 2.37967 4.81836 2.37967 7.49023C2.37967 10.434 1.86052 11.0613 1.00037 12.0996C0.937869 12.175 0.874197 12.2516 0.809353 12.3313C0.641853 12.5333 0.535728 12.779 0.503538 13.0394C0.471347 13.2999 0.514439 13.5641 0.627712 13.8008C0.868728 14.3086 1.3824 14.6238 1.96873 14.6238H14.0347C14.6183 14.6238 15.1285 14.309 15.3703 13.8035C15.4841 13.5668 15.5276 13.3023 15.4956 13.0416C15.4637 12.7809 15.3577 12.5348 15.1902 12.3324Z" fill="#0E253C" fill-opacity="0.85"/>
<path d="M7.99959 17.75C8.56405 17.7495 9.11787 17.5963 9.60231 17.3066C10.0867 17.0168 10.4837 16.6014 10.7512 16.1043C10.7637 16.0805 10.77 16.0538 10.7692 16.0269C10.7685 15.9999 10.7607 15.9736 10.7468 15.9506C10.7329 15.9275 10.7133 15.9084 10.6898 15.8952C10.6663 15.8819 10.6398 15.875 10.6129 15.875H5.38709C5.36011 15.8749 5.33356 15.8818 5.31003 15.895C5.2865 15.9082 5.2668 15.9273 5.25284 15.9504C5.23887 15.9735 5.23113 15.9998 5.23035 16.0268C5.22958 16.0537 5.2358 16.0804 5.24842 16.1043C5.51581 16.6013 5.91273 17.0167 6.39709 17.3065C6.88145 17.5962 7.43519 17.7495 7.99959 17.75Z" fill="#0E253C" fill-opacity="0.85"/>
</svg>
