<svg width="20" height="20" viewBox="0 0 20 20" fill="none" xmlns="http://www.w3.org/2000/svg">
<path fill-rule="evenodd" clip-rule="evenodd" d="M13.3333 2.5C13.5543 2.5 13.7663 2.5878 13.9226 2.74408C14.0789 2.90036 14.1667 3.11232 14.1667 3.33333V4.16667H15.8333C16.2754 4.16667 16.6993 4.34226 17.0118 4.65482C17.3244 4.96738 17.5 5.39131 17.5 5.83333V15.8333C17.5 16.2754 17.3244 16.6993 17.0118 17.0118C16.6993 17.3244 16.2754 17.5 15.8333 17.5H4.16667C3.72464 17.5 3.30072 17.3244 2.98816 17.0118C2.67559 16.6993 2.5 16.2754 2.5 15.8333V5.83333C2.5 5.39131 2.67559 4.96738 2.98816 4.65482C3.30072 4.34226 3.72464 4.16667 4.16667 4.16667H5.83333V3.33333C5.83333 3.11232 5.92113 2.90036 6.07741 2.74408C6.23369 2.5878 6.44565 2.5 6.66667 2.5C6.88768 2.5 7.09964 2.5878 7.25592 2.74408C7.4122 2.90036 7.5 3.11232 7.5 3.33333V4.16667H12.5V3.33333C12.5 3.11232 12.5878 2.90036 12.7441 2.74408C12.9004 2.5878 13.1123 2.5 13.3333 2.5ZM6.675 13.3333H6.66667C6.45427 13.3336 6.24997 13.4149 6.09553 13.5607C5.94108 13.7065 5.84814 13.9058 5.83569 14.1178C5.82324 14.3299 5.89223 14.5386 6.02855 14.7015C6.16488 14.8644 6.35825 14.9691 6.56917 14.9942L6.675 15C6.89601 15 7.10798 14.9122 7.26426 14.7559C7.42054 14.5996 7.50833 14.3877 7.50833 14.1667C7.50833 13.9457 7.42054 13.7337 7.26426 13.5774C7.10798 13.4211 6.89601 13.3333 6.675 13.3333ZM10.0083 13.3333H10C9.7876 13.3336 9.58331 13.4149 9.42886 13.5607C9.27441 13.7065 9.18147 13.9058 9.16902 14.1178C9.15658 14.3299 9.22556 14.5386 9.36189 14.7015C9.49821 14.8644 9.69159 14.9691 9.9025 14.9942L10.0083 15C10.2293 15 10.4413 14.9122 10.5976 14.7559C10.7539 14.5996 10.8417 14.3877 10.8417 14.1667C10.8417 13.9457 10.7539 13.7337 10.5976 13.5774C10.4413 13.4211 10.2293 13.3333 10.0083 13.3333ZM13.3417 13.3333H13.3333C13.1209 13.3336 12.9166 13.4149 12.7622 13.5607C12.6077 13.7065 12.5148 13.9058 12.5024 14.1178C12.4899 14.3299 12.5589 14.5386 12.6952 14.7015C12.8315 14.8644 13.0249 14.9691 13.2358 14.9942L13.3417 15C13.5627 15 13.7746 14.9122 13.9309 14.7559C14.0872 14.5996 14.175 14.3877 14.175 14.1667C14.175 13.9457 14.0872 13.7337 13.9309 13.5774C13.7746 13.4211 13.5627 13.3333 13.3417 13.3333ZM6.675 10H6.66667C6.45427 10.0002 6.24997 10.0816 6.09553 10.2274C5.94108 10.3732 5.84814 10.5725 5.83569 10.7845C5.82324 10.9965 5.89223 11.2053 6.02855 11.3682C6.16488 11.5311 6.35825 11.6357 6.56917 11.6608L6.675 11.6667C6.89601 11.6667 7.10798 11.5789 7.26426 11.4226C7.42054 11.2663 7.50833 11.0543 7.50833 10.8333C7.50833 10.6123 7.42054 10.4004 7.26426 10.2441C7.10798 10.0878 6.89601 10 6.675 10ZM10.0083 10H10C9.7876 10.0002 9.58331 10.0816 9.42886 10.2274C9.27441 10.3732 9.18147 10.5725 9.16902 10.7845C9.15658 10.9965 9.22556 11.2053 9.36189 11.3682C9.49821 11.5311 9.69159 11.6357 9.9025 11.6608L10.0083 11.6667C10.2293 11.6667 10.4413 11.5789 10.5976 11.4226C10.7539 11.2663 10.8417 11.0543 10.8417 10.8333C10.8417 10.6123 10.7539 10.4004 10.5976 10.2441C10.4413 10.0878 10.2293 10 10.0083 10ZM13.3417 10H13.3333C13.1209 10.0002 12.9166 10.0816 12.7622 10.2274C12.6077 10.3732 12.5148 10.5725 12.5024 10.7845C12.4899 10.9965 12.5589 11.2053 12.6952 11.3682C12.8315 11.5311 13.0249 11.6357 13.2358 11.6608L13.3417 11.6667C13.5627 11.6667 13.7746 11.5789 13.9309 11.4226C14.0872 11.2663 14.175 11.0543 14.175 10.8333C14.175 10.6123 14.0872 10.4004 13.9309 10.2441C13.7746 10.0878 13.5627 10 13.3417 10ZM15.8333 5.83333H4.16667V7.5H15.8333V5.83333Z" fill="#0E253C"/>
</svg>
