<svg width="21" height="24" viewBox="0 0 21 24" fill="none" xmlns="http://www.w3.org/2000/svg">
<path d="M4.16497 4.49017C4.00104 4.62133 3.8687 4.78768 3.77776 4.97691C3.68682 5.16613 3.63961 5.37339 3.63961 5.58333C3.63961 5.79328 3.68682 6.00054 3.77776 6.18976C3.8687 6.37899 4.00104 6.54534 4.16497 6.6765L9.39164 10.8578C10.3086 11.5905 11.6666 10.9395 11.6666 9.76467V6.2635C12.9996 6.48953 14.2387 7.09629 15.2346 8.01063C16.2305 8.92496 16.9406 10.1078 17.2795 11.4167H16.3333C15.8692 11.4167 15.4241 11.601 15.0959 11.9292C14.7677 12.2574 14.5833 12.7025 14.5833 13.1667C14.5833 13.6308 14.7677 14.0759 15.0959 14.4041C15.4241 14.7323 15.8692 14.9167 16.3333 14.9167H17.2795C16.9659 16.1274 16.3342 17.2322 15.4498 18.1165C14.5655 19.0008 13.4607 19.6326 12.25 19.9462V19C12.25 18.5359 12.0656 18.0908 11.7374 17.7626C11.4092 17.4344 10.9641 17.25 10.5 17.25C10.0358 17.25 9.59072 17.4344 9.26253 17.7626C8.93435 18.0908 8.74997 18.5359 8.74997 19V19.9462C7.53927 19.6326 6.43448 19.0008 5.55013 18.1165C4.66579 17.2322 4.03407 16.1274 3.72047 14.9167H4.66664C5.13077 14.9167 5.57589 14.7323 5.90407 14.4041C6.23226 14.0759 6.41664 13.6308 6.41664 13.1667C6.41664 12.7025 6.23226 12.2574 5.90407 11.9292C5.57589 11.601 5.13077 11.4167 4.66664 11.4167H3.72047C3.7298 11.377 3.7403 11.3385 3.75197 11.3C3.87574 10.8526 3.8167 10.3743 3.58784 9.97043C3.35899 9.56654 2.97906 9.2701 2.53164 9.14633C2.08422 9.02257 1.60596 9.0816 1.20206 9.31046C0.798174 9.53932 0.501738 9.91925 0.377971 10.3667C-0.194488 12.4365 -0.118511 14.6321 0.595658 16.6574C1.30983 18.6827 2.62784 20.4403 4.37199 21.6933C6.11613 22.9462 8.20253 23.6342 10.3498 23.6646C12.4972 23.6949 14.6022 23.066 16.381 21.8628C18.1598 20.6596 19.5269 18.9399 20.2979 16.9355C21.069 14.9312 21.2069 12.7386 20.6931 10.6534C20.1793 8.56826 19.0385 6.69078 17.4244 5.27415C15.8104 3.85751 13.8008 2.96984 11.6666 2.73083V1.40317C11.6666 0.229501 10.3086 -0.422666 9.39164 0.310001L4.16497 4.49017Z" fill="#513CCE"/>
</svg>
