<svg width="22" height="24" viewBox="0 0 22 24" fill="none" xmlns="http://www.w3.org/2000/svg">
<path d="M6.92211 6.47L7.03294 6.56683L16.9333 16.466C17.063 16.5956 17.1604 16.754 17.2175 16.9283C17.2745 17.1026 17.2897 17.2879 17.2618 17.4692C17.2338 17.6505 17.1635 17.8226 17.0566 17.9716C16.9496 18.1206 16.8091 18.2423 16.6463 18.3268L16.5109 18.3852L4.3951 22.85C2.11777 23.69 -0.100061 21.5492 0.591772 19.2753L0.650105 19.105L5.11377 6.98917C5.17278 6.82867 5.26635 6.68311 5.38786 6.56279C5.50937 6.44247 5.65584 6.35033 5.8169 6.2929C5.97797 6.23546 6.14969 6.21413 6.31991 6.23042C6.49013 6.24671 6.65469 6.30022 6.80194 6.38717L6.92211 6.47ZM17.4583 11.538C18.5211 11.594 19.9783 11.818 21.2453 12.5787C21.5021 12.7309 21.6908 12.9759 21.7725 13.2631C21.8542 13.5503 21.8226 13.8579 21.6843 14.1226C21.546 14.3872 21.3115 14.5888 21.029 14.6857C20.7466 14.7826 20.4378 14.7676 20.1661 14.6437L20.0448 14.5795C19.2491 14.1012 18.2318 13.9145 17.3358 13.8678C16.9666 13.8465 16.5964 13.848 16.2274 13.8725L15.8588 13.9087C15.5544 13.9479 15.2469 13.8657 15.0027 13.6798C14.7586 13.4939 14.5975 13.2193 14.5544 12.9155C14.5112 12.6117 14.5896 12.3031 14.7724 12.0566C14.9551 11.8102 15.2277 11.6456 15.5309 11.5987C16.1699 11.5161 16.8153 11.4954 17.4583 11.5368M19.8208 8.2865C20.118 8.28712 20.4038 8.40119 20.6198 8.60542C20.8358 8.80964 20.9657 9.08861 20.983 9.38537C21.0003 9.68213 20.9036 9.97429 20.7128 10.2022C20.5219 10.4301 20.2513 10.5766 19.9561 10.6117L19.8208 10.6198H18.9948C18.6975 10.6192 18.4117 10.5051 18.1957 10.3009C17.9797 10.0967 17.8498 9.81772 17.8325 9.52096C17.8152 9.2242 17.9119 8.93204 18.1028 8.70413C18.2936 8.47623 18.5643 8.32977 18.8594 8.29467L18.9948 8.2865H19.8208ZM16.1084 7.39167C16.3093 7.59256 16.43 7.85984 16.4478 8.14337C16.4656 8.4269 16.3794 8.7072 16.2053 8.93167L16.1084 9.04133L14.8706 10.2792C14.6607 10.4884 14.3789 10.6099 14.0827 10.6189C13.7864 10.628 13.4978 10.5239 13.2754 10.3279C13.0531 10.1318 12.9137 9.85852 12.8856 9.56345C12.8575 9.26837 12.9428 8.97366 13.1241 8.73917L13.2209 8.6295L14.4576 7.39283C14.566 7.28436 14.6946 7.19831 14.8363 7.1396C14.9779 7.08088 15.1297 7.05066 15.283 7.05066C15.4363 7.05066 15.5882 7.08088 15.7298 7.1396C15.8714 7.19831 16.0001 7.28319 16.1084 7.39167ZM13.0903 1.24917C13.6129 2.8195 13.3329 4.53917 13.0063 5.74083C12.8099 6.49 12.5403 7.21802 12.2013 7.91433C12.0631 8.19126 11.8206 8.40197 11.5271 8.5001C11.2336 8.59823 10.9131 8.57574 10.6362 8.43758C10.3593 8.29943 10.1486 8.05692 10.0504 7.76341C9.9523 7.4699 9.97478 7.14943 10.1129 6.8725C10.3906 6.31833 10.5913 5.72333 10.7546 5.12717C11.0194 4.1565 11.1524 3.103 10.9483 2.23967L10.8771 1.98767C10.8263 1.84176 10.8049 1.68721 10.8143 1.53299C10.8237 1.37876 10.8636 1.22793 10.9317 1.08926C10.9998 0.950587 11.0948 0.826829 11.2112 0.725171C11.3276 0.623513 11.4629 0.545981 11.6095 0.497074C11.7561 0.448168 11.9109 0.428861 12.065 0.440276C12.2191 0.451691 12.3694 0.493599 12.5071 0.563568C12.6449 0.633537 12.7674 0.730173 12.8675 0.847866C12.9676 0.96556 13.0433 1.10197 13.0903 1.24917ZM19.4078 4.0935C19.6265 4.31228 19.7494 4.60897 19.7494 4.91833C19.7494 5.22769 19.6265 5.52438 19.4078 5.74317L18.5829 6.568C18.4753 6.67943 18.3466 6.76831 18.2042 6.82945C18.0619 6.89059 17.9088 6.92278 17.7539 6.92413C17.599 6.92547 17.4454 6.89595 17.302 6.83729C17.1586 6.77863 17.0284 6.692 16.9188 6.58246C16.8093 6.47292 16.7226 6.34266 16.664 6.19928C16.6053 6.0559 16.5758 5.90227 16.5771 5.74736C16.5785 5.59246 16.6107 5.43937 16.6718 5.29703C16.733 5.15469 16.8218 5.02595 16.9333 4.91833L17.7581 4.0935C17.9769 3.87478 18.2736 3.75191 18.5829 3.75191C18.8923 3.75191 19.189 3.87478 19.4078 4.0935Z" fill="#513CCE"/>
</svg>
