<svg width="26" height="26" viewBox="0 0 26 26" fill="none" xmlns="http://www.w3.org/2000/svg">
<path fill-rule="evenodd" clip-rule="evenodd" d="M11.3503 1.45001C11.7633 1.03757 12.3159 0.794875 12.899 0.769822C13.4821 0.744769 14.0535 0.939173 14.5003 1.31468L14.6496 1.45118L16.8663 3.66668H20C20.5884 3.66679 21.1551 3.88925 21.5865 4.28949C22.0179 4.68973 22.2822 5.2382 22.3263 5.82501L22.3333 6.00001V9.13368L24.55 11.3503C24.9627 11.7634 25.2056 12.3162 25.2307 12.8996C25.2557 13.483 25.0611 14.0546 24.6853 14.5015L24.5488 14.6497L22.3321 16.8663V20C22.3323 20.5887 22.11 21.1557 21.7097 21.5873C21.3094 22.019 20.7608 22.2834 20.1738 22.3275L20 22.3333H16.8675L14.6508 24.55C14.2378 24.9628 13.6849 25.2057 13.1015 25.2307C12.5181 25.2558 11.9465 25.0612 11.4996 24.6853L11.3515 24.55L9.1348 22.3333H5.99997C5.41129 22.3335 4.8443 22.1112 4.41266 21.7109C3.98101 21.3107 3.71662 20.762 3.67247 20.175L3.66663 20V16.8663L1.44997 14.6497C1.03719 14.2366 0.794296 13.6838 0.76924 13.1004C0.744185 12.517 0.938791 11.9454 1.31463 11.4985L1.44997 11.3503L3.66663 9.13368V6.00001C3.66674 5.41154 3.8892 4.84484 4.28944 4.41344C4.68968 3.98205 5.23815 3.71781 5.82497 3.67368L5.99997 3.66668H9.13363L11.3503 1.45001ZM16.5921 9.48018L11.6408 14.4315L9.57813 12.3688C9.35922 12.1501 9.06237 12.0273 8.75289 12.0274C8.4434 12.0275 8.14664 12.1505 7.92788 12.3694C7.70912 12.5883 7.58629 12.8852 7.5864 13.1947C7.5865 13.5042 7.70955 13.8009 7.92846 14.0197L10.7331 16.8243C10.8523 16.9436 10.9938 17.0382 11.1495 17.1027C11.3053 17.1672 11.4722 17.2004 11.6408 17.2004C11.8094 17.2004 11.9763 17.1672 12.132 17.1027C12.2878 17.0382 12.4293 16.9436 12.5485 16.8243L18.2418 11.1298C18.4543 10.9098 18.5719 10.6151 18.5693 10.3092C18.5666 10.0033 18.4439 9.7107 18.2276 9.49439C18.0113 9.27808 17.7187 9.15538 17.4128 9.15273C17.1069 9.15007 16.8122 9.26766 16.5921 9.48018Z" fill="#513CCE"/>
</svg>
