<svg width="25" height="20" viewBox="0 0 25 20" fill="none" xmlns="http://www.w3.org/2000/svg">
<path d="M15.9999 0.666672C16.6188 0.666672 17.2122 0.912504 17.6498 1.35009C18.0874 1.78767 18.3333 2.38117 18.3333 3.00001V4.16667H20.1066C20.4563 4.16672 20.8016 4.24537 21.1168 4.39683C21.432 4.54829 21.7092 4.76867 21.9277 5.04167L23.6544 7.20117C23.9859 7.61498 24.1665 8.12932 24.1666 8.65951V13.5C24.1666 14.1188 23.9208 14.7123 23.4832 15.1499C23.0456 15.5875 22.4521 15.8333 21.8333 15.8333H20.6666C20.6666 16.7616 20.2978 17.6518 19.6415 18.3082C18.9851 18.9646 18.0948 19.3333 17.1666 19.3333C16.2383 19.3333 15.3481 18.9646 14.6917 18.3082C14.0353 17.6518 13.6666 16.7616 13.6666 15.8333H10.1666C10.1666 16.293 10.0761 16.7481 9.90016 17.1727C9.72427 17.5974 9.46646 17.9832 9.14146 18.3082C8.81645 18.6332 8.43062 18.891 8.00598 19.0669C7.58134 19.2428 7.12621 19.3333 6.66658 19.3333C6.20696 19.3333 5.75183 19.2428 5.32719 19.0669C4.90255 18.891 4.51672 18.6332 4.19171 18.3082C3.86671 17.9832 3.6089 17.5974 3.43301 17.1727C3.25712 16.7481 3.16659 16.293 3.16659 15.8333C2.54775 15.8333 1.95425 15.5875 1.51667 15.1499C1.07908 14.7123 0.833252 14.1188 0.833252 13.5V3.00001C0.833252 2.38117 1.07908 1.78767 1.51667 1.35009C1.95425 0.912504 2.54775 0.666672 3.16659 0.666672H15.9999ZM6.66658 14.6667C6.35717 14.6667 6.06042 14.7896 5.84163 15.0084C5.62284 15.2272 5.49992 15.5239 5.49992 15.8333C5.49992 16.1428 5.62284 16.4395 5.84163 16.6583C6.06042 16.8771 6.35717 17 6.66658 17C6.976 17 7.27275 16.8771 7.49154 16.6583C7.71034 16.4395 7.83325 16.1428 7.83325 15.8333C7.83325 15.5239 7.71034 15.2272 7.49154 15.0084C7.27275 14.7896 6.976 14.6667 6.66658 14.6667ZM17.1666 14.6667C16.8572 14.6667 16.5604 14.7896 16.3416 15.0084C16.1228 15.2272 15.9999 15.5239 15.9999 15.8333C15.9999 16.1428 16.1228 16.4395 16.3416 16.6583C16.5604 16.8771 16.8572 17 17.1666 17C17.476 17 17.7728 16.8771 17.9915 16.6583C18.2103 16.4395 18.3333 16.1428 18.3333 15.8333C18.3333 15.5239 18.2103 15.2272 17.9915 15.0084C17.7728 14.7896 17.476 14.6667 17.1666 14.6667ZM20.1066 6.50001H18.3333V11.1667H21.8333V8.65834L20.1066 6.50001Z" fill="#513CCE"/>
</svg>
