<svg width="12" height="8" viewBox="0 0 12 8" fill="none" xmlns="http://www.w3.org/2000/svg">
<path d="M1.27808 1.44226C1.30033 1.44245 1.32282 1.44452 1.34448 1.4491L1.40698 1.4696C1.42716 1.47827 1.4466 1.48847 1.4646 1.50085L1.51538 1.54382L1.52124 1.55066L5.99976 6.02917L10.4724 1.55652C10.5196 1.51091 10.5787 1.48057 10.6423 1.46863L10.7068 1.46277C10.7724 1.46336 10.8357 1.48339 10.8894 1.51941L10.9392 1.56042C10.9855 1.60671 11.0169 1.66521 11.03 1.72839L11.0369 1.79285C11.0374 1.85826 11.019 1.92221 10.9841 1.97644L10.9431 2.02722L6.23511 6.73523C6.1726 6.79769 6.08812 6.83289 5.99976 6.83289C5.93358 6.83286 5.86947 6.81336 5.81519 6.77722L5.7644 6.73523L1.05054 2.02136L1.0437 2.0155L1.00073 1.96472L0.969482 1.9071C0.960796 1.88688 0.953504 1.86603 0.948975 1.8446L0.942139 1.7782C0.941967 1.7562 0.943873 1.73427 0.947998 1.71277L0.966553 1.64929C0.974958 1.62875 0.985561 1.60908 0.997803 1.5907L1.03979 1.53992C1.0554 1.52431 1.0723 1.51009 1.09058 1.49792L1.14917 1.46667C1.16966 1.4583 1.19101 1.45227 1.21265 1.44812L1.27808 1.44226Z" fill="#0E253C" stroke="#0E253C"/>
</svg>
