<svg width="15" height="9" viewBox="0 0 15 9" fill="none" xmlns="http://www.w3.org/2000/svg">
<path d="M10.786 6.33333H10.5334C10.2682 6.33333 10.0138 6.43869 9.82626 6.62623C9.63872 6.81376 9.53337 7.06812 9.53337 7.33333C9.53337 7.59855 9.63872 7.8529 9.82626 8.04044C10.0138 8.22798 10.2682 8.33333 10.5334 8.33333H13.2C13.4652 8.33333 13.7196 8.22798 13.9071 8.04044C14.0947 7.8529 14.2 7.59855 14.2 7.33333V4.66667C14.2 4.40145 14.0947 4.1471 13.9071 3.95956C13.7196 3.77203 13.4652 3.66667 13.2 3.66667C12.9348 3.66667 12.6805 3.77203 12.4929 3.95956C12.3054 4.1471 12.2 4.40145 12.2 4.66667V4.91933L9.24003 1.95934C9.05253 1.77207 8.79837 1.66688 8.53337 1.66688C8.26837 1.66688 8.0142 1.77207 7.8267 1.95934L5.53337 4.25333L1.9067 0.626669C1.81441 0.531203 1.70403 0.455074 1.582 0.402723C1.45997 0.350372 1.32874 0.322848 1.19596 0.321758C1.06318 0.320667 0.931513 0.346031 0.808641 0.39637C0.685769 0.446709 0.574152 0.521014 0.480304 0.614951C0.386456 0.708887 0.312256 0.820574 0.262033 0.943493C0.21181 1.06641 0.18657 1.1981 0.187786 1.33088C0.189002 1.46366 0.21665 1.59487 0.269115 1.71685C0.321581 1.83882 0.397814 1.94913 0.493367 2.04134L4.8267 6.37467C5.0142 6.56194 5.26837 6.66712 5.53337 6.66712C5.79837 6.66712 6.05253 6.56194 6.24003 6.37467L8.53337 4.08L10.786 6.33267V6.33333Z" fill="#DC3545"/>
</svg>
