<svg width="20" height="20" viewBox="0 0 20 20" fill="none" xmlns="http://www.w3.org/2000/svg">
<path d="M1.72329 4.56833L9.11913 11.965C9.33792 12.1839 9.63016 12.3139 9.93928 12.3298C10.2484 12.3456 10.5524 12.2462 10.7925 12.0508L10.8875 11.965L18.2783 4.57333C18.3025 4.66499 18.3183 4.75833 18.3266 4.85416L18.3333 4.99999V15C18.3334 15.4205 18.1746 15.8255 17.8887 16.1338C17.6028 16.4421 17.2109 16.631 16.7916 16.6625L16.6666 16.6667H3.33329C2.91281 16.6668 2.50782 16.508 2.1995 16.2221C1.89118 15.9362 1.70233 15.5443 1.67079 15.125L1.66663 15V4.99999C1.66663 4.89999 1.67496 4.80333 1.69163 4.70833L1.72329 4.56833ZM16.6666 3.33333C16.7675 3.33333 16.8666 3.34166 16.9625 3.35916L17.1041 3.39166L10.0041 10.4917L2.90163 3.38999C2.99329 3.36499 3.08829 3.34833 3.18496 3.33999L3.33329 3.33333H16.6666Z" fill="#0E253C"/>
</svg>
