<svg width="16" height="16" viewBox="0 0 16 16" fill="none" xmlns="http://www.w3.org/2000/svg">
<path d="M8.00024 1.83333C11.406 1.83351 14.1663 4.59457 14.1663 8.00032C14.1661 11.4059 11.4058 14.1662 8.00024 14.1663H2.66626C2.47309 14.1663 2.28708 14.0992 2.13892 13.9779L2.07739 13.9222C1.92121 13.7659 1.83325 13.5543 1.83325 13.3333V8.00032C1.83325 4.59447 4.59439 1.83333 8.00024 1.83333ZM6.00024 8.83333C5.72953 8.83333 5.46858 8.92791 5.26099 9.09798L5.17505 9.17513C4.95626 9.39392 4.83325 9.6909 4.83325 10.0003C4.83333 10.2711 4.92769 10.532 5.0979 10.7396L5.17505 10.8245C5.39384 11.0433 5.69082 11.1663 6.00024 11.1663H8.00024C8.27088 11.1663 8.53198 11.0727 8.7395 10.9027L8.82446 10.8245C9.04318 10.6058 9.16617 10.3096 9.16626 10.0003C9.16626 9.72974 9.0725 9.46861 8.90259 9.26107L8.82446 9.17513C8.60576 8.95651 8.30947 8.83342 8.00024 8.83333H6.00024ZM5.99927 6.16634C5.73928 6.16665 5.48799 6.2541 5.28442 6.41243L5.19946 6.4847C5.01027 6.66331 4.88743 6.89957 4.8479 7.15462L4.83618 7.26497C4.82093 7.52473 4.89319 7.78072 5.03931 7.99349L5.10571 8.08236C5.27269 8.28185 5.50098 8.41924 5.75317 8.47396L5.86255 8.49154L5.8772 8.49349L5.89185 8.49446L5.96997 8.49935L5.98462 8.50032H10.0002C10.2604 8.50004 10.5124 8.41279 10.7161 8.25423L10.8 8.18196C10.9892 8.00336 11.1121 7.76708 11.1516 7.51204L11.1643 7.40169C11.1795 7.14207 11.1072 6.88588 10.9612 6.67318L10.8938 6.58431C10.703 6.35637 10.4322 6.21025 10.137 6.17513L10.1223 6.17318L10.1077 6.1722L10.0295 6.16732L10.0149 6.16634H5.99927Z" fill="white" stroke="white"/>
</svg>
