<svg width="55" height="54" viewBox="0 0 55 54" fill="none" xmlns="http://www.w3.org/2000/svg">
<rect x="1.1001" y="0.5" width="53" height="53" rx="11.5" fill="#F6F8F9"/>
<rect x="1.1001" y="0.5" width="53" height="53" rx="11.5" stroke="url(#paint0_linear_38_22434)"/>
<path d="M27.6 13.6667C28.8494 13.6667 30.0667 13.8107 31.2347 14.0813C31.4076 14.1186 31.5713 14.1899 31.7164 14.291C31.8615 14.3922 31.985 14.5212 32.0797 14.6706C32.1745 14.8199 32.2386 14.9866 32.2682 15.161C32.2979 15.3353 32.2926 15.5138 32.2526 15.6861C32.2127 15.8584 32.1388 16.021 32.0354 16.1645C31.932 16.308 31.801 16.4294 31.6502 16.5218C31.4994 16.6142 31.3317 16.6756 31.1569 16.7025C30.9821 16.7295 30.8037 16.7214 30.632 16.6787C29.9745 16.5259 29.3064 16.4234 28.6334 16.372L28.0734 16.3413L28.5267 16.368C30.4554 16.5144 32.3197 17.1275 33.9587 18.1547L34.3227 18.392L35.1307 17.584C35.3701 17.3423 35.6928 17.2013 36.0328 17.1898C36.3727 17.1782 36.7043 17.2971 36.9595 17.522C37.2147 17.7469 37.3743 18.0608 37.4056 18.3995C37.437 18.7382 37.3377 19.0761 37.128 19.344L37.0174 19.4693L36.3574 20.1293C38.2234 22.121 39.3547 24.6892 39.5648 27.4103C39.7748 30.1314 39.051 32.8429 37.5128 35.0973C35.9746 37.3517 33.7138 39.0145 31.1035 39.8112C28.4931 40.6079 25.6892 40.491 23.1542 39.4798C20.6193 38.4686 18.5047 36.6235 17.1594 34.2489C15.8142 31.8743 15.3185 29.112 15.7543 26.4178C16.1901 23.7236 17.5313 21.2585 19.5565 19.429C21.5818 17.5996 24.1702 16.5152 26.8947 16.3547L27.16 16.3413L27.08 16.3427C26.3907 16.3693 25.716 16.4493 25.0587 16.5747L24.568 16.6787C24.2259 16.7524 23.8685 16.6887 23.573 16.5012C23.2774 16.3137 23.0674 16.0176 22.9883 15.6766C22.9092 15.3357 22.9673 14.9773 23.1501 14.6789C23.3329 14.3804 23.6257 14.1658 23.9654 14.0813C25.1334 13.8107 26.352 13.6667 27.6 13.6667ZM27.6 21.6667C27.2464 21.6667 26.9073 21.8071 26.6572 22.0572C26.4072 22.3072 26.2667 22.6464 26.2667 23V28.3333C26.2667 28.687 26.4072 29.0261 26.6572 29.2761C26.9073 29.5262 27.2464 29.6667 27.6 29.6667C27.9537 29.6667 28.2928 29.5262 28.5428 29.2761C28.7929 29.0261 28.9334 28.687 28.9334 28.3333V23C28.9334 22.6464 28.7929 22.3072 28.5428 22.0572C28.2928 21.8071 27.9537 21.6667 27.6 21.6667Z" fill="url(#paint1_linear_38_22434)"/>
<defs>
<linearGradient id="paint0_linear_38_22434" x1="27.6001" y1="0" x2="27.6001" y2="54" gradientUnits="userSpaceOnUse">
<stop stop-color="#C521FF"/>
<stop offset="0.495" stop-color="#FF2164"/>
<stop offset="1" stop-color="#FF9B21"/>
</linearGradient>
<linearGradient id="paint1_linear_38_22434" x1="27.6004" y1="13.6667" x2="27.6004" y2="40.3339" gradientUnits="userSpaceOnUse">
<stop stop-color="#C521FF"/>
<stop offset="0.5" stop-color="#FF2164"/>
<stop offset="1" stop-color="#FF9B21"/>
</linearGradient>
</defs>
</svg>
