<svg width="55" height="54" viewBox="0 0 55 54" fill="none" xmlns="http://www.w3.org/2000/svg">
<rect x="1.30005" y="0.5" width="53" height="53" rx="11.5" fill="#F6F8F9"/>
<rect x="1.30005" y="0.5" width="53" height="53" rx="11.5" stroke="url(#paint0_linear_38_22446)"/>
<path fill-rule="evenodd" clip-rule="evenodd" d="M29.5334 36.832C27.475 37.1949 25.3547 36.9041 23.4701 36.0004C21.5854 35.0967 20.0311 33.6255 19.0254 31.7933C18.7674 31.3337 18.3384 30.9946 17.8316 30.8496C17.3249 30.7046 16.7814 30.7654 16.3193 31.019C15.8573 31.2725 15.5139 31.6982 15.364 32.2035C15.2141 32.7088 15.2697 33.2528 15.5187 33.7173C18.3214 38.8307 24.1587 41.8413 30.228 40.7707C37.8414 39.4293 42.9267 32.168 41.584 24.5533C40.24 16.9387 32.98 11.8533 25.3654 13.1973C22.3485 13.7291 19.5892 15.2354 17.5104 17.4855C15.4315 19.7356 14.1479 22.6052 13.856 25.6547C13.6907 27.4 15.544 28.5333 17.0134 27.72L20.7734 25.6373C22.836 24.496 21.796 21.3453 19.4587 21.656L19.3227 21.6747C20.2073 20.2627 21.4307 19.0942 22.8817 18.2752C24.3327 17.4563 25.9653 17.0129 27.6313 16.9853C29.2972 16.9577 30.9436 17.3468 32.4209 18.1172C33.8983 18.8877 35.1597 20.015 36.0906 21.3969C37.0215 22.7788 37.5923 24.3713 37.7513 26.0299C37.9102 27.6885 37.6522 29.3604 37.0008 30.894C36.3493 32.4275 35.325 33.7739 34.0209 34.8109C32.7168 35.8479 31.1742 36.5427 29.5334 36.832Z" fill="url(#paint1_linear_38_22446)"/>
<defs>
<linearGradient id="paint0_linear_38_22446" x1="27.8" y1="0" x2="27.8" y2="54" gradientUnits="userSpaceOnUse">
<stop stop-color="#C521FF"/>
<stop offset="0.495" stop-color="#FF2164"/>
<stop offset="1" stop-color="#FF9B21"/>
</linearGradient>
<linearGradient id="paint1_linear_38_22446" x1="27.8224" y1="12.9819" x2="27.8224" y2="40.986" gradientUnits="userSpaceOnUse">
<stop stop-color="#C521FF"/>
<stop offset="0.5" stop-color="#FF2164"/>
<stop offset="1" stop-color="#FF9B21"/>
</linearGradient>
</defs>
</svg>
