<svg width="20" height="20" viewBox="0 0 20 20" fill="none" xmlns="http://www.w3.org/2000/svg">
<g clip-path="url(#clip0_38_23467)">
<path d="M5.71416 2.0375C6.66666 2.73166 7.40833 3.67916 8.04166 4.58583L8.41 5.1225L8.7575 5.635C8.93132 5.88894 9.00564 6.19795 8.96629 6.50316C8.92695 6.80837 8.7767 7.08844 8.54416 7.29L6.91833 8.4975C6.83978 8.55422 6.78449 8.63752 6.76273 8.73193C6.74096 8.82634 6.75421 8.92545 6.8 9.01083C7.16833 9.68 7.82333 10.6767 8.57333 11.4267C9.32416 12.1767 10.3675 12.875 11.0833 13.285C11.1731 13.3354 11.2787 13.3495 11.3785 13.3244C11.4784 13.2992 11.5648 13.2368 11.62 13.15L12.6783 11.5392C12.8729 11.2807 13.1599 11.1076 13.4793 11.056C13.7987 11.0044 14.1256 11.0784 14.3917 11.2625L14.9442 11.645C15.9767 12.3617 17.0858 13.1758 17.9342 14.2617C18.0687 14.4348 18.1543 14.6409 18.182 14.8585C18.2097 15.076 18.1785 15.297 18.0917 15.4983C17.3942 17.1258 15.6292 18.5117 13.7933 18.4442L13.5433 18.43L13.3492 18.4133L13.1342 18.3883L12.9 18.3567L12.6458 18.315C12.6013 18.307 12.5569 18.2986 12.5125 18.29L12.2325 18.23C12.1835 18.2192 12.1346 18.2081 12.0858 18.1967L11.7808 18.1183L11.46 18.0267L11.125 17.9183C9.58666 17.3967 7.63416 16.3717 5.63083 14.3683C3.62833 12.3658 2.60333 10.4133 2.08166 8.875L1.97333 8.54L1.88166 8.21916L1.80333 7.91416L1.73833 7.62583C1.71956 7.53552 1.70205 7.44496 1.68583 7.35416L1.64416 7.1L1.61083 6.86583L1.58666 6.65083L1.57 6.45666L1.55666 6.20666C1.48916 4.37666 2.89 2.59916 4.51 1.905C4.70498 1.8208 4.9185 1.78875 5.12961 1.81198C5.34071 1.83521 5.54216 1.91292 5.71416 2.0375ZM12.4933 5.03333L12.59 5.04416C13.1966 5.15116 13.7537 5.44745 14.1816 5.89056C14.6094 6.33367 14.886 6.90086 14.9717 7.51083C15.0022 7.72181 14.9507 7.93648 14.8278 8.11067C14.7049 8.28485 14.5199 8.40531 14.3109 8.44727C14.1019 8.48922 13.8848 8.44947 13.7042 8.3362C13.5236 8.22293 13.3932 8.04476 13.34 7.83833L13.3208 7.7425C13.2873 7.50341 13.1853 7.27915 13.027 7.09682C12.8688 6.91448 12.6611 6.78186 12.4292 6.715L12.3 6.68583C12.0907 6.64874 11.9036 6.53311 11.7767 6.36258C11.6499 6.19206 11.5931 5.97952 11.6177 5.76845C11.6424 5.55738 11.7468 5.36371 11.9096 5.22706C12.0724 5.09042 12.2812 5.02112 12.4933 5.03333ZM12.5 2.5C13.8261 2.5 15.0978 3.02678 16.0355 3.96446C16.9732 4.90214 17.5 6.17391 17.5 7.5C17.4998 7.7124 17.4184 7.91669 17.2726 8.07114C17.1268 8.22558 16.9275 8.31853 16.7155 8.33097C16.5035 8.34342 16.2947 8.27443 16.1318 8.13811C15.9689 8.00178 15.8643 7.80841 15.8392 7.5975L15.8333 7.5C15.8336 6.65368 15.5119 5.83896 14.9333 5.22127C14.3548 4.60357 13.5629 4.2292 12.7183 4.17416L12.5 4.16666C12.279 4.16666 12.067 4.07887 11.9107 3.92259C11.7545 3.7663 11.6667 3.55434 11.6667 3.33333C11.6667 3.11232 11.7545 2.90035 11.9107 2.74407C12.067 2.58779 12.279 2.5 12.5 2.5Z" fill="#0E253C"/>
</g>
<defs>
<clipPath id="clip0_38_23467">
<rect width="20" height="20" fill="white"/>
</clipPath>
</defs>
</svg>
