<svg width="15" height="8" viewBox="0 0 15 8" fill="none" xmlns="http://www.w3.org/2000/svg">
<path d="M10.7333 0C10.5565 0 10.3869 0.070238 10.2619 0.195262C10.1369 0.320287 10.0666 0.489856 10.0666 0.666667C10.0666 0.843478 10.1369 1.01305 10.2619 1.13807C10.3869 1.2631 10.5565 1.33333 10.7333 1.33333H11.7906L8.73329 4.39067L6.20462 1.862C6.0796 1.73702 5.91007 1.66681 5.73329 1.66681C5.55651 1.66681 5.38698 1.73702 5.26196 1.862L0.928623 6.19533C0.86495 6.25683 0.814162 6.33039 0.779222 6.41173C0.744283 6.49307 0.725892 6.58055 0.725123 6.66907C0.724354 6.75759 0.741221 6.84537 0.774742 6.9273C0.808263 7.00923 0.857765 7.08367 0.92036 7.14626C0.982955 7.20886 1.05739 7.25836 1.13932 7.29188C1.22125 7.3254 1.30904 7.34227 1.39756 7.3415C1.48608 7.34073 1.57356 7.32234 1.65489 7.2874C1.73623 7.25246 1.80979 7.20167 1.87129 7.138L5.73329 3.276L8.26196 5.80467C8.38698 5.92965 8.55651 5.99986 8.73329 5.99986C8.91007 5.99986 9.07961 5.92965 9.20462 5.80467L12.7333 2.276V3.33333C12.7333 3.51014 12.8035 3.67971 12.9286 3.80474C13.0536 3.92976 13.2231 4 13.4 4C13.5768 4 13.7463 3.92976 13.8714 3.80474C13.9964 3.67971 14.0666 3.51014 14.0666 3.33333V0.666667C14.0666 0.489856 13.9964 0.320287 13.8714 0.195262C13.7463 0.070238 13.5768 0 13.4 0H10.7333Z" fill="#22C55E"/>
</svg>
