<svg width="14" height="9" viewBox="0 0 14 9" fill="none" xmlns="http://www.w3.org/2000/svg">
<path d="M3.77345 4.31467C4.39146 3.5855 5.21847 3.06369 6.14267 2.81979C7.06687 2.5759 8.04367 2.62167 8.94101 2.95094C9.83835 3.28021 10.6129 3.87708 11.16 4.66085C11.7072 5.44462 12.0004 6.3775 12.0001 7.33333C12.0001 7.59855 12.1055 7.8529 12.293 8.04044C12.4805 8.22798 12.7349 8.33333 13.0001 8.33333C13.2653 8.33333 13.5197 8.22798 13.7072 8.04044C13.8948 7.8529 14.0001 7.59855 14.0001 7.33333C14.0001 3.65133 11.0154 0.666668 7.33345 0.666668C6.4012 0.665649 5.47917 0.86069 4.62719 1.23913C3.77522 1.61757 3.01235 2.17094 2.38811 2.86333L2.15678 1.55333C2.13631 1.42194 2.08983 1.29595 2.02008 1.18274C1.95033 1.06952 1.85869 0.971359 1.75054 0.893987C1.64239 0.816616 1.51989 0.761592 1.39022 0.732135C1.26055 0.702678 1.1263 0.69938 0.995334 0.722434C0.86437 0.745487 0.73932 0.79443 0.6275 0.866398C0.51568 0.938366 0.419336 1.03191 0.344107 1.14157C0.268879 1.25122 0.216275 1.37477 0.189375 1.505C0.162475 1.63523 0.161819 1.76952 0.187446 1.9L0.882112 5.84C0.928112 6.10067 1.07545 6.33333 1.29345 6.48533C1.56211 6.67333 1.91611 6.71533 2.21678 6.62L5.97945 5.956C6.11084 5.93553 6.23683 5.88906 6.35004 5.8193C6.46326 5.74955 6.56142 5.65791 6.63879 5.54976C6.71616 5.44161 6.77119 5.31912 6.80065 5.18944C6.8301 5.05977 6.8334 4.92552 6.81035 4.79456C6.78729 4.66359 6.73835 4.53854 6.66638 4.42672C6.59441 4.3149 6.50087 4.21856 6.39121 4.14333C6.28156 4.0681 6.15801 4.0155 6.02778 3.9886C5.89755 3.9617 5.76326 3.96104 5.63278 3.98667L3.77411 4.314L3.77345 4.31467Z" fill="#0E253C" fill-opacity="0.65"/>
</svg>
