<svg width="16" height="16" viewBox="0 0 16 16" fill="none" xmlns="http://www.w3.org/2000/svg">
<path d="M4.77345 7.31467C5.39146 6.5855 6.21847 6.06369 7.14267 5.81979C8.06687 5.5759 9.04367 5.62167 9.94101 5.95094C10.8383 6.28021 11.6129 6.87708 12.16 7.66085C12.7072 8.44462 13.0004 9.3775 13.0001 10.3333C13.0001 10.5986 13.1055 10.8529 13.293 11.0404C13.4805 11.228 13.7349 11.3333 14.0001 11.3333C14.2653 11.3333 14.5197 11.228 14.7072 11.0404C14.8948 10.8529 15.0001 10.5986 15.0001 10.3333C15.0001 6.65133 12.0154 3.66667 8.33345 3.66667C7.4012 3.66565 6.47917 3.86069 5.62719 4.23913C4.77522 4.61757 4.01235 5.17094 3.38811 5.86333L3.15678 4.55333C3.13631 4.42194 3.08983 4.29595 3.02008 4.18274C2.95033 4.06952 2.85869 3.97136 2.75054 3.89399C2.64239 3.81662 2.51989 3.76159 2.39022 3.73213C2.26055 3.70268 2.1263 3.69938 1.99533 3.72243C1.86437 3.74549 1.73932 3.79443 1.6275 3.8664C1.51568 3.93837 1.41934 4.03191 1.34411 4.14157C1.26888 4.25122 1.21628 4.37477 1.18938 4.505C1.16248 4.63523 1.16182 4.76952 1.18745 4.9L1.88211 8.84C1.92811 9.10067 2.07545 9.33333 2.29345 9.48533C2.56211 9.67333 2.91611 9.71533 3.21678 9.62L6.97945 8.956C7.11084 8.93553 7.23683 8.88906 7.35004 8.8193C7.46326 8.74955 7.56142 8.65791 7.63879 8.54976C7.71616 8.44161 7.77119 8.31912 7.80065 8.18944C7.8301 8.05977 7.8334 7.92552 7.81035 7.79456C7.78729 7.66359 7.73835 7.53854 7.66638 7.42672C7.59441 7.3149 7.50087 7.21856 7.39121 7.14333C7.28156 7.0681 7.15801 7.0155 7.02778 6.9886C6.89755 6.9617 6.76326 6.96104 6.63278 6.98667L4.77411 7.314L4.77345 7.31467Z" fill="#0E253C" fill-opacity="0.65"/>
</svg>
