<svg width="18" height="18" viewBox="0 0 18 18" fill="none" xmlns="http://www.w3.org/2000/svg">
<path d="M12.8982 11.4415C13.7219 10.3201 14.2084 8.93561 14.2084 7.43749C14.2084 3.69806 11.177 0.666656 7.43758 0.666656C3.69815 0.666656 0.666748 3.69806 0.666748 7.43749C0.666748 11.1769 3.69815 14.2083 7.43758 14.2083C8.93611 14.2083 10.3209 13.7215 11.4425 12.8974L11.4416 12.8981C11.4724 12.9397 11.5066 12.9796 11.5443 13.0173L15.5552 17.0282C15.962 17.435 16.6215 17.435 17.0283 17.0282C17.4351 16.6214 17.4351 15.9619 17.0283 15.5551L13.0174 11.5442C12.9797 11.5065 12.9398 11.4723 12.8982 11.4415ZM13.1667 7.43749C13.1667 10.6016 10.6017 13.1667 7.43758 13.1667C4.27345 13.1667 1.70841 10.6016 1.70841 7.43749C1.70841 4.27336 4.27345 1.70832 7.43758 1.70832C10.6017 1.70832 13.1667 4.27336 13.1667 7.43749Z" fill="#0E253C" fill-opacity="0.85"/>
</svg>
