<svg width="22" height="24" viewBox="0 0 22 24" fill="none" xmlns="http://www.w3.org/2000/svg">
<path d="M11 0.333328C12.0931 0.333328 13.1583 0.459328 14.1803 0.696162C14.3316 0.728762 14.4749 0.791135 14.6018 0.879647C14.7288 0.96816 14.8368 1.08104 14.9197 1.21173C15.0026 1.34241 15.0587 1.48827 15.0847 1.64083C15.1106 1.79339 15.106 1.9496 15.071 2.10035C15.036 2.2511 14.9714 2.39338 14.8809 2.51892C14.7904 2.64445 14.6758 2.75072 14.5439 2.83155C14.4119 2.91237 14.2652 2.96614 14.1122 2.98971C13.9593 3.01327 13.8032 3.00618 13.653 2.96883C13.0777 2.83517 12.493 2.74546 11.9041 2.70049L11.4141 2.67366L11.8108 2.69699C13.4985 2.82506 15.1296 3.36159 16.5638 4.26033L16.8823 4.468L17.5893 3.761C17.7988 3.54953 18.0811 3.42612 18.3786 3.41603C18.6761 3.40594 18.9662 3.50992 19.1895 3.7067C19.4128 3.90348 19.5525 4.17818 19.5799 4.47456C19.6073 4.77094 19.5204 5.06659 19.337 5.30099L19.2401 5.41066L18.6626 5.98816C20.2954 7.73085 21.2853 9.97805 21.4691 12.359C21.6529 14.74 21.0196 17.1125 19.6736 19.0851C18.3277 21.0578 16.3495 22.5126 14.0655 23.2098C11.7814 23.9069 9.328 23.8047 7.1099 22.9199C4.8918 22.0351 3.04158 20.4206 1.86446 18.3428C0.687345 16.265 0.253668 13.848 0.634978 11.4906C1.01629 9.13317 2.1898 6.97615 3.96192 5.37539C5.73403 3.77463 7.99888 2.82576 10.3828 2.68533L10.615 2.67366L10.545 2.67483C9.9418 2.69816 9.35147 2.76816 8.7763 2.87783L8.34697 2.96883C8.04761 3.03334 7.73488 2.97756 7.47628 2.81352C7.21768 2.64949 7.03395 2.39035 6.96473 2.09204C6.89551 1.79373 6.94636 1.48016 7.1063 1.21901C7.26624 0.957862 7.52245 0.770069 7.81964 0.696162C8.84164 0.459328 9.90797 0.333328 11 0.333328ZM11 7.33333C10.6906 7.33333 10.3938 7.45624 10.175 7.67504C9.95622 7.89383 9.8333 8.19058 9.8333 8.49999V13.1667C9.8333 13.4761 9.95622 13.7728 10.175 13.9916C10.3938 14.2104 10.6906 14.3333 11 14.3333C11.3094 14.3333 11.6061 14.2104 11.8249 13.9916C12.0437 13.7728 12.1666 13.4761 12.1666 13.1667V8.49999C12.1666 8.19058 12.0437 7.89383 11.8249 7.67504C11.6061 7.45624 11.3094 7.33333 11 7.33333Z" fill="#513CCE"/>
</svg>
