<svg width="55" height="54" viewBox="0 0 55 54" fill="none" xmlns="http://www.w3.org/2000/svg">
<rect x="0.699951" y="0.5" width="53" height="53" rx="11.5" fill="#F6F8F9"/>
<rect x="0.699951" y="0.5" width="53" height="53" rx="11.5" stroke="url(#paint0_linear_38_22410)"/>
<path fill-rule="evenodd" clip-rule="evenodd" d="M39.1987 20.1387C39.2427 18.1653 38.2374 16.44 36.7547 15.576C35.4827 14.8347 33.908 14.7667 32.5334 15.6253C31.16 14.7667 29.584 14.8347 28.312 15.576C26.8294 16.44 25.824 18.1653 25.868 20.1387C25.9254 22.684 27.896 24.7573 30.78 26.4707C31.316 26.788 31.888 27.148 32.5334 27.148C33.1787 27.148 33.7507 26.788 34.2867 26.4707C37.1707 24.7573 39.1414 22.684 39.1987 20.1387ZM22.3854 27.4373L19.732 29.0947C19.234 28.6065 18.5641 28.3335 17.8667 28.3347H16.5334C15.8261 28.3347 15.1478 28.6156 14.6477 29.1157C14.1477 29.6158 13.8667 30.2941 13.8667 31.0013V36.3347C13.8667 37.0419 14.1477 37.7202 14.6477 38.2203C15.1478 38.7204 15.8261 39.0013 16.5334 39.0013H17.8667C18.3348 39.0013 18.7946 38.8781 19.2 38.644C19.6054 38.41 19.942 38.0734 20.176 37.668H21.2374C21.4442 37.6678 21.6482 37.7157 21.8334 37.808L24.9667 39.3747C26.2929 40.0374 27.8023 40.2392 29.256 39.948L33.536 39.0933C34.1214 38.976 34.6734 38.7293 35.1494 38.3707L39.244 35.3C39.6442 34.9999 39.9691 34.6108 40.1928 34.1635C40.4166 33.7161 40.5332 33.2229 40.5334 32.7227V32.648C40.5334 30.288 38.0494 28.752 35.9374 29.808C35.0174 30.268 34.168 30.9747 33.3134 31.5453C33.8067 30.0613 33.0214 28.4147 31.46 28.0253L26.5054 26.7853C25.8101 26.6116 25.0869 26.5798 24.379 26.6918C23.6711 26.8039 22.9931 27.0574 22.3854 27.4373Z" fill="url(#paint1_linear_38_22410)"/>
<defs>
<linearGradient id="paint0_linear_38_22410" x1="27.2" y1="0" x2="27.2" y2="54" gradientUnits="userSpaceOnUse">
<stop stop-color="#C521FF"/>
<stop offset="0.495" stop-color="#FF2164"/>
<stop offset="1" stop-color="#FF9B21"/>
</linearGradient>
<linearGradient id="paint1_linear_38_22410" x1="27.2" y1="15.0006" x2="27.2" y2="40.0778" gradientUnits="userSpaceOnUse">
<stop stop-color="#C521FF"/>
<stop offset="0.5" stop-color="#FF2164"/>
<stop offset="1" stop-color="#FF9B21"/>
</linearGradient>
</defs>
</svg>
