<svg width="55" height="54" viewBox="0 0 55 54" fill="none" xmlns="http://www.w3.org/2000/svg">
<rect x="0.899902" y="0.5" width="53" height="53" rx="11.5" fill="#F6F8F9"/>
<rect x="0.899902" y="0.5" width="53" height="53" rx="11.5" stroke="url(#paint0_linear_38_22422)"/>
<g clip-path="url(#clip0_38_22422)">
<path d="M39.3999 32.524V34.3333C39.3999 35.4187 38.8919 36.3467 38.1866 37.076C37.4892 37.7987 36.5426 38.388 35.4772 38.8547C33.3412 39.788 30.4852 40.3333 27.3999 40.3333C24.3146 40.3333 21.4586 39.7893 19.3226 38.8547C18.2572 38.388 17.3106 37.7987 16.6132 37.076C15.9666 36.4093 15.4866 35.572 15.4106 34.6013L15.3999 34.3333V32.524C16.0199 32.876 16.6826 33.188 17.3919 33.4507C20.0986 34.452 23.6386 35.0107 27.3999 35.0107C31.1612 35.0107 34.7012 34.452 37.4079 33.4507C37.9399 33.2533 38.4452 33.0293 38.9266 32.78L39.3999 32.524ZM15.3999 25.1907C16.0199 25.5427 16.6826 25.8547 17.3919 26.1173C20.0986 27.1187 23.6386 27.6773 27.3999 27.6773C31.1612 27.6773 34.7012 27.1187 37.4079 26.1173C38.1172 25.8547 38.7799 25.544 39.3999 25.1907V29.3307C38.5145 30.0141 37.531 30.5598 36.4826 30.9493C34.1426 31.816 30.9306 32.3453 27.3999 32.3453C23.8706 32.3453 20.6586 31.816 18.3172 30.9493C17.2688 30.5598 16.2853 30.0141 15.3999 29.3307V25.1907ZM27.3999 15C30.4852 15 33.3412 15.544 35.4772 16.4787C36.5426 16.9453 37.4892 17.5347 38.1866 18.2573C38.8332 18.924 39.3132 19.7613 39.3892 20.732L39.3999 21V21.9973C38.5146 22.6808 37.531 23.2265 36.4826 23.616C34.1426 24.4827 30.9306 25.012 27.3999 25.012C23.8706 25.012 20.6586 24.4827 18.3172 23.616C17.3852 23.2707 16.5439 22.816 15.7772 22.2747L15.3999 21.9973V21C15.3999 19.9147 15.9079 18.9867 16.6132 18.2573C17.3106 17.5347 18.2572 16.9453 19.3226 16.4787C21.4586 15.5453 24.3146 15 27.3999 15Z" fill="url(#paint1_linear_38_22422)"/>
</g>
<defs>
<linearGradient id="paint0_linear_38_22422" x1="27.3999" y1="0" x2="27.3999" y2="54" gradientUnits="userSpaceOnUse">
<stop stop-color="#C521FF"/>
<stop offset="0.495" stop-color="#FF2164"/>
<stop offset="1" stop-color="#FF9B21"/>
</linearGradient>
<linearGradient id="paint1_linear_38_22422" x1="27.3999" y1="15" x2="27.3999" y2="40.3333" gradientUnits="userSpaceOnUse">
<stop stop-color="#C521FF"/>
<stop offset="0.5" stop-color="#FF2164"/>
<stop offset="1" stop-color="#FF9B21"/>
</linearGradient>
<clipPath id="clip0_38_22422">
<rect width="32" height="32" fill="white" transform="translate(11.3999 11)"/>
</clipPath>
</defs>
</svg>
