<svg width="23" height="23" viewBox="0 0 23 23" fill="none" xmlns="http://www.w3.org/2000/svg">
<path fill-rule="evenodd" clip-rule="evenodd" d="M15.1837 1.2165C15.6212 0.779067 16.2146 0.533331 16.8333 0.533331C17.452 0.533331 18.0454 0.779067 18.483 1.2165L21.7835 4.517C22.2209 4.95456 22.4667 5.54795 22.4667 6.16667C22.4667 6.78538 22.2209 7.37877 21.7835 7.81633L18.483 11.1168C18.0454 11.5543 17.452 11.8 16.8333 11.8C16.2146 11.8 15.6212 11.5543 15.1837 11.1168L11.8832 7.81633C11.4457 7.37877 11.2 6.78538 11.2 6.16667C11.2 5.54795 11.4457 4.95456 11.8832 4.517L15.1837 1.2165ZM7.5 1.5C8.11884 1.5 8.71233 1.74583 9.14991 2.18342C9.5875 2.621 9.83333 3.21449 9.83333 3.83333V8.5C9.83333 9.11884 9.5875 9.71233 9.14991 10.1499C8.71233 10.5875 8.11884 10.8333 7.5 10.8333H2.83333C2.21449 10.8333 1.621 10.5875 1.18342 10.1499C0.745833 9.71233 0.5 9.11884 0.5 8.5V3.83333C0.5 3.21449 0.745833 2.621 1.18342 2.18342C1.621 1.74583 2.21449 1.5 2.83333 1.5H7.5ZM21.5 15.5C21.5 14.8812 21.2542 14.2877 20.8166 13.8501C20.379 13.4125 19.7855 13.1667 19.1667 13.1667H14.5C13.8812 13.1667 13.2877 13.4125 12.8501 13.8501C12.4125 14.2877 12.1667 14.8812 12.1667 15.5V20.1667C12.1667 20.7855 12.4125 21.379 12.8501 21.8166C13.2877 22.2542 13.8812 22.5 14.5 22.5H19.1667C19.7855 22.5 20.379 22.2542 20.8166 21.8166C21.2542 21.379 21.5 20.7855 21.5 20.1667V15.5ZM7.5 13.1667C8.11884 13.1667 8.71233 13.4125 9.14991 13.8501C9.5875 14.2877 9.83333 14.8812 9.83333 15.5V20.1667C9.83333 20.7855 9.5875 21.379 9.14991 21.8166C8.71233 22.2542 8.11884 22.5 7.5 22.5H2.83333C2.21449 22.5 1.621 22.2542 1.18342 21.8166C0.745833 21.379 0.5 20.7855 0.5 20.1667V15.5C0.5 14.8812 0.745833 14.2877 1.18342 13.8501C1.621 13.4125 2.21449 13.1667 2.83333 13.1667H7.5Z" fill="#513CCE"/>
</svg>
